<svg xmlns="http://www.w3.org/2000/svg" xmlns:xlink="http://www.w3.org/1999/xlink" width="70" zoomAndPan="magnify" viewBox="0 0 52.5 30.75" height="41" preserveAspectRatio="xMidYMid meet" version="1.0"><defs><clipPath id="b5690ea004"><path d="M 0 0.0195312 L 51.261719 0.0195312 L 51.261719 29.738281 L 0 29.738281 Z M 0 0.0195312 " clip-rule="nonzero"/></clipPath></defs><g clip-path="url(#b5690ea004)"><path fill="#ffffff" d="M 50.007812 29.664062 L 1.378906 29.664062 C 1.203125 29.664062 1.03125 29.632812 0.863281 29.5625 C 0.699219 29.492188 0.550781 29.394531 0.425781 29.269531 C 0.300781 29.144531 0.203125 28.996094 0.132812 28.832031 C 0.0625 28.664062 0.03125 28.492188 0.03125 28.316406 C 0.03125 28.136719 0.0625 27.964844 0.132812 27.796875 C 0.203125 27.632812 0.300781 27.484375 0.425781 27.359375 C 0.550781 27.234375 0.699219 27.136719 0.863281 27.066406 C 1.03125 26.996094 1.203125 26.964844 1.378906 26.964844 L 50.007812 26.964844 C 50.1875 26.964844 50.359375 26.996094 50.527344 27.066406 C 50.691406 27.136719 50.835938 27.234375 50.964844 27.359375 C 51.089844 27.484375 51.1875 27.632812 51.257812 27.796875 C 51.324219 27.964844 51.359375 28.136719 51.359375 28.316406 C 51.359375 28.492188 51.324219 28.664062 51.257812 28.832031 C 51.1875 28.996094 51.089844 29.144531 50.964844 29.269531 C 50.835938 29.394531 50.691406 29.492188 50.527344 29.5625 C 50.359375 29.632812 50.1875 29.664062 50.007812 29.664062 Z M 50.007812 16.191406 L 1.378906 16.191406 C 1.203125 16.191406 1.03125 16.160156 0.863281 16.089844 C 0.699219 16.019531 0.550781 15.921875 0.425781 15.796875 C 0.300781 15.671875 0.203125 15.523438 0.132812 15.359375 C 0.0625 15.191406 0.03125 15.019531 0.03125 14.84375 C 0.03125 14.664062 0.0625 14.492188 0.132812 14.324219 C 0.203125 14.160156 0.300781 14.011719 0.425781 13.886719 C 0.550781 13.761719 0.699219 13.664062 0.863281 13.59375 C 1.03125 13.527344 1.203125 13.492188 1.378906 13.492188 L 50.007812 13.492188 C 50.1875 13.492188 50.359375 13.527344 50.527344 13.59375 C 50.691406 13.664062 50.835938 13.761719 50.964844 13.886719 C 51.089844 14.011719 51.1875 14.160156 51.257812 14.324219 C 51.324219 14.492188 51.359375 14.664062 51.359375 14.84375 C 51.359375 15.019531 51.324219 15.191406 51.257812 15.359375 C 51.1875 15.523438 51.089844 15.671875 50.964844 15.796875 C 50.835938 15.921875 50.691406 16.019531 50.527344 16.089844 C 50.359375 16.160156 50.1875 16.191406 50.007812 16.191406 Z M 50.007812 2.722656 L 1.378906 2.722656 C 1.203125 2.722656 1.03125 2.6875 0.863281 2.621094 C 0.699219 2.550781 0.550781 2.453125 0.425781 2.328125 C 0.300781 2.199219 0.203125 2.054688 0.132812 1.890625 C 0.0625 1.722656 0.03125 1.550781 0.03125 1.371094 C 0.03125 1.191406 0.0625 1.019531 0.132812 0.855469 C 0.203125 0.691406 0.300781 0.542969 0.425781 0.417969 C 0.550781 0.289062 0.699219 0.191406 0.863281 0.125 C 1.03125 0.0546875 1.203125 0.0195312 1.378906 0.0195312 L 50.007812 0.0195312 C 50.1875 0.0195312 50.359375 0.0546875 50.527344 0.125 C 50.691406 0.191406 50.835938 0.289062 50.964844 0.417969 C 51.089844 0.542969 51.1875 0.691406 51.257812 0.855469 C 51.324219 1.019531 51.359375 1.191406 51.359375 1.371094 C 51.359375 1.550781 51.324219 1.722656 51.257812 1.890625 C 51.1875 2.054688 51.089844 2.199219 50.964844 2.328125 C 50.835938 2.453125 50.691406 2.550781 50.527344 2.621094 C 50.359375 2.6875 50.1875 2.722656 50.007812 2.722656 Z M 50.007812 2.722656 " fill-opacity="1" fill-rule="nonzero"/><path fill="#ffffff" d="M 50.007812 29.664062 L 1.378906 29.664062 C 1.203125 29.664062 1.03125 29.632812 0.863281 29.5625 C 0.699219 29.492188 0.550781 29.394531 0.425781 29.269531 C 0.300781 29.144531 0.203125 28.996094 0.132812 28.832031 C 0.0625 28.664062 0.03125 28.492188 0.03125 28.316406 C 0.03125 28.136719 0.0625 27.964844 0.132812 27.796875 C 0.203125 27.632812 0.300781 27.484375 0.425781 27.359375 C 0.550781 27.234375 0.699219 27.136719 0.863281 27.066406 C 1.03125 26.996094 1.203125 26.964844 1.378906 26.964844 L 50.007812 26.964844 C 50.1875 26.964844 50.359375 26.996094 50.527344 27.066406 C 50.691406 27.136719 50.835938 27.234375 50.964844 27.359375 C 51.089844 27.484375 51.1875 27.632812 51.257812 27.796875 C 51.324219 27.964844 51.359375 28.136719 51.359375 28.316406 C 51.359375 28.492188 51.324219 28.664062 51.257812 28.832031 C 51.1875 28.996094 51.089844 29.144531 50.964844 29.269531 C 50.835938 29.394531 50.691406 29.492188 50.527344 29.5625 C 50.359375 29.632812 50.1875 29.664062 50.007812 29.664062 Z M 50.007812 16.191406 L 1.378906 16.191406 C 1.203125 16.191406 1.03125 16.160156 0.863281 16.089844 C 0.699219 16.019531 0.550781 15.921875 0.425781 15.796875 C 0.300781 15.671875 0.203125 15.523438 0.132812 15.359375 C 0.0625 15.191406 0.03125 15.019531 0.03125 14.84375 C 0.03125 14.664062 0.0625 14.492188 0.132812 14.324219 C 0.203125 14.160156 0.300781 14.011719 0.425781 13.886719 C 0.550781 13.761719 0.699219 13.664062 0.863281 13.59375 C 1.03125 13.527344 1.203125 13.492188 1.378906 13.492188 L 50.007812 13.492188 C 50.1875 13.492188 50.359375 13.527344 50.527344 13.59375 C 50.691406 13.664062 50.835938 13.761719 50.964844 13.886719 C 51.089844 14.011719 51.1875 14.160156 51.257812 14.324219 C 51.324219 14.492188 51.359375 14.664062 51.359375 14.84375 C 51.359375 15.019531 51.324219 15.191406 51.257812 15.359375 C 51.1875 15.523438 51.089844 15.671875 50.964844 15.796875 C 50.835938 15.921875 50.691406 16.019531 50.527344 16.089844 C 50.359375 16.160156 50.1875 16.191406 50.007812 16.191406 Z M 50.007812 2.722656 L 1.378906 2.722656 C 1.203125 2.722656 1.03125 2.6875 0.863281 2.621094 C 0.699219 2.550781 0.550781 2.453125 0.425781 2.328125 C 0.300781 2.199219 0.203125 2.054688 0.132812 1.890625 C 0.0625 1.722656 0.03125 1.550781 0.03125 1.371094 C 0.03125 1.191406 0.0625 1.019531 0.132812 0.855469 C 0.203125 0.691406 0.300781 0.542969 0.425781 0.417969 C 0.550781 0.289062 0.699219 0.191406 0.863281 0.125 C 1.03125 0.0546875 1.203125 0.0195312 1.378906 0.0195312 L 50.007812 0.0195312 C 50.1875 0.0195312 50.359375 0.0546875 50.527344 0.125 C 50.691406 0.191406 50.835938 0.289062 50.964844 0.417969 C 51.089844 0.542969 51.1875 0.691406 51.257812 0.855469 C 51.324219 1.019531 51.359375 1.191406 51.359375 1.371094 C 51.359375 1.550781 51.324219 1.722656 51.257812 1.890625 C 51.1875 2.054688 51.089844 2.199219 50.964844 2.328125 C 50.835938 2.453125 50.691406 2.550781 50.527344 2.621094 C 50.359375 2.6875 50.1875 2.722656 50.007812 2.722656 Z M 50.007812 2.722656 " fill-opacity="1" fill-rule="nonzero"/></g></svg>