<svg xmlns="http://www.w3.org/2000/svg" xmlns:xlink="http://www.w3.org/1999/xlink" width="46" zoomAndPan="magnify" viewBox="0 0 34.5 34.5" height="46" preserveAspectRatio="xMidYMid meet" version="1.0"><defs><clipPath id="aefc020b2b"><path d="M 0 0 L 34.007812 0 L 34.007812 34.007812 L 0 34.007812 Z M 0 0 " clip-rule="nonzero"/></clipPath><clipPath id="8114e82adc"><path d="M 4 19 L 30 19 L 30 34.007812 L 4 34.007812 Z M 4 19 " clip-rule="nonzero"/></clipPath><clipPath id="f03a2ef9c2"><path d="M 0 0 L 34.007812 0 L 34.007812 34.007812 L 0 34.007812 Z M 0 0 " clip-rule="nonzero"/></clipPath><clipPath id="85dd2b12b2"><path d="M 4 19 L 30 19 L 30 34.007812 L 4 34.007812 Z M 4 19 " clip-rule="nonzero"/></clipPath></defs><g clip-path="url(#aefc020b2b)"><path fill="#b3b3b3" d="M 34.007812 17.003906 C 34.007812 21.355469 32.375 25.320312 29.6875 28.328125 C 26.574219 31.816406 22.046875 34.007812 17.003906 34.007812 C 11.960938 34.007812 7.433594 31.816406 4.320312 28.328125 C 1.632812 25.320312 0 21.355469 0 17.003906 C 0 7.613281 7.613281 0 17.003906 0 C 26.394531 0 34.007812 7.613281 34.007812 17.003906 " fill-opacity="1" fill-rule="nonzero"/></g><path fill="#f2f2f2" d="M 17.003906 20.136719 C 20.085938 20.136719 22.894531 16.648438 22.894531 12.820312 C 22.894531 9.203125 22.195312 5.625 17.003906 5.625 C 11.816406 5.625 11.113281 9.203125 11.113281 12.820312 C 11.113281 16.648438 13.921875 20.136719 17.003906 20.136719 " fill-opacity="1" fill-rule="nonzero"/><g clip-path="url(#8114e82adc)"><path fill="#f2f2f2" d="M 29.6875 28.328125 C 26.574219 31.816406 22.046875 34.007812 17.003906 34.007812 C 11.960938 34.007812 7.433594 31.816406 4.320312 28.328125 C 4.265625 26.230469 5.664062 21.363281 12.800781 19.867188 C 14.019531 21.109375 15.519531 21.816406 17.003906 21.816406 C 18.488281 21.816406 19.988281 21.109375 21.207031 19.867188 C 28.34375 21.363281 29.742188 26.230469 29.6875 28.328125 " fill-opacity="1" fill-rule="nonzero"/></g><g clip-path="url(#f03a2ef9c2)"><path fill="#b3b3b3" d="M 34.007812 17.003906 C 34.007812 21.355469 32.375 25.320312 29.6875 28.328125 C 26.574219 31.816406 22.046875 34.007812 17.003906 34.007812 C 11.960938 34.007812 7.433594 31.816406 4.320312 28.328125 C 1.632812 25.320312 0 21.355469 0 17.003906 C 0 7.613281 7.613281 0 17.003906 0 C 26.394531 0 34.007812 7.613281 34.007812 17.003906 " fill-opacity="1" fill-rule="nonzero"/></g><path fill="#f2f2f2" d="M 17.003906 20.136719 C 20.085938 20.136719 22.894531 16.648438 22.894531 12.820312 C 22.894531 9.203125 22.195312 5.625 17.003906 5.625 C 11.816406 5.625 11.113281 9.203125 11.113281 12.820312 C 11.113281 16.648438 13.921875 20.136719 17.003906 20.136719 " fill-opacity="1" fill-rule="nonzero"/><g clip-path="url(#85dd2b12b2)"><path fill="#f2f2f2" d="M 29.6875 28.328125 C 26.574219 31.816406 22.046875 34.007812 17.003906 34.007812 C 11.960938 34.007812 7.433594 31.816406 4.320312 28.328125 C 4.265625 26.230469 5.664062 21.363281 12.800781 19.867188 C 14.019531 21.109375 15.519531 21.816406 17.003906 21.816406 C 18.488281 21.816406 19.988281 21.109375 21.207031 19.867188 C 28.34375 21.363281 29.742188 26.230469 29.6875 28.328125 " fill-opacity="1" fill-rule="nonzero"/></g></svg>