<svg xmlns="http://www.w3.org/2000/svg" xmlns:xlink="http://www.w3.org/1999/xlink" width="173" zoomAndPan="magnify" viewBox="0 0 129.75 25.5" height="34" preserveAspectRatio="xMidYMid meet" version="1.0"><defs><clipPath id="78c9ac5d65"><path d="M 1.125 0 L 25 0 L 25 22 L 1.125 22 Z M 1.125 0 " clip-rule="nonzero"/></clipPath><clipPath id="de078983ec"><path d="M 1.125 0 L 34 0 L 34 25.007812 L 1.125 25.007812 Z M 1.125 0 " clip-rule="nonzero"/></clipPath><clipPath id="1822a41e73"><path d="M 17 0 L 60 0 L 60 25.007812 L 17 25.007812 Z M 17 0 " clip-rule="nonzero"/></clipPath><clipPath id="42a2e1942b"><path d="M 42 0 L 85 0 L 85 25.007812 L 42 25.007812 Z M 42 0 " clip-rule="nonzero"/></clipPath><clipPath id="f62883d984"><path d="M 68 0 L 101.898438 0 L 101.898438 25.007812 L 68 25.007812 Z M 68 0 " clip-rule="nonzero"/></clipPath><clipPath id="1c6dd7325d"><path d="M 1.125 16 L 34 16 L 34 25.007812 L 1.125 25.007812 Z M 1.125 16 " clip-rule="nonzero"/></clipPath><clipPath id="8d5df7e15e"><path d="M 17 16 L 60 16 L 60 25.007812 L 17 25.007812 Z M 17 16 " clip-rule="nonzero"/></clipPath><clipPath id="50e161dd78"><path d="M 42 16 L 85 16 L 85 25.007812 L 42 25.007812 Z M 42 16 " clip-rule="nonzero"/></clipPath><clipPath id="1887b4c74d"><path d="M 93 16 L 101.898438 16 L 101.898438 25.007812 L 93 25.007812 Z M 93 16 " clip-rule="nonzero"/></clipPath><clipPath id="67ab0a4cac"><path d="M 68 16 L 101.898438 16 L 101.898438 25.007812 L 68 25.007812 Z M 68 16 " clip-rule="nonzero"/></clipPath><clipPath id="15f7229a9e"><path d="M 93 0 L 101.898438 0 L 101.898438 25.007812 L 93 25.007812 Z M 93 0 " clip-rule="nonzero"/></clipPath><clipPath id="0893163343"><path d="M 102.082031 0 L 126 0 L 126 22 L 102.082031 22 Z M 102.082031 0 " clip-rule="nonzero"/></clipPath><clipPath id="1f79d562cf"><path d="M 102.082031 0 L 127.824219 0 L 127.824219 24.273438 L 102.082031 24.273438 Z M 102.082031 0 " clip-rule="nonzero"/></clipPath><clipPath id="8b5d9cfb7f"><path d="M 118 0 L 127.824219 0 L 127.824219 24.273438 L 118 24.273438 Z M 118 0 " clip-rule="nonzero"/></clipPath><clipPath id="7a2fd29009"><path d="M 102.082031 16 L 127.824219 16 L 127.824219 24.273438 L 102.082031 24.273438 Z M 102.082031 16 " clip-rule="nonzero"/></clipPath><clipPath id="ed5d5a882a"><path d="M 118 16 L 127.824219 16 L 127.824219 24.273438 L 118 24.273438 Z M 118 16 " clip-rule="nonzero"/></clipPath></defs><g clip-path="url(#78c9ac5d65)"><path fill="#f7ce08" d="M 19.996094 21.832031 L 13.105469 18.289062 L 6.277344 21.957031 L 7.519531 14.304688 L 1.917969 8.949219 L 9.578125 7.761719 L 12.945312 0.78125 L 16.4375 7.699219 L 24.117188 8.746094 L 18.617188 14.203125 Z M 19.996094 21.832031 " fill-opacity="1" fill-rule="nonzero"/></g><g clip-path="url(#de078983ec)"><path stroke-linecap="butt" transform="matrix(0.285368, 0, 0, 0.285368, 19.9975, 0.908897)" fill="none" stroke-linejoin="miter" d="M -0.00492874 73.319942 L -24.151418 60.904486 L -48.078891 73.757974 L -43.725952 46.94223 L -63.355241 28.175316 L -36.51212 24.014017 L -24.712646 -0.447308 L -12.475139 23.795001 L 14.436424 27.463515 L -4.836964 46.58633 Z M -0.00492874 73.319942 " stroke="#b28037" stroke-width="2.41" stroke-opacity="1" stroke-miterlimit="10"/></g><path fill="#f7ce08" d="M 45.675781 21.832031 L 38.785156 18.289062 L 31.957031 21.957031 L 33.199219 14.304688 L 27.597656 8.949219 L 35.257812 7.761719 L 38.625 0.78125 L 42.117188 7.699219 L 49.796875 8.746094 L 44.296875 14.203125 Z M 45.675781 21.832031 " fill-opacity="1" fill-rule="nonzero"/><g clip-path="url(#1822a41e73)"><path stroke-linecap="butt" transform="matrix(0.285368, 0, 0, 0.285368, 45.67659, 0.908897)" fill="none" stroke-linejoin="miter" d="M -0.00283516 73.319942 L -24.149324 60.904486 L -48.076797 73.757974 L -43.723859 46.94223 L -63.353147 28.175316 L -36.510027 24.014017 L -24.710552 -0.447308 L -12.473046 23.795001 L 14.438517 27.463515 L -4.834871 46.58633 Z M -0.00283516 73.319942 " stroke="#b28037" stroke-width="2.41" stroke-opacity="1" stroke-miterlimit="10"/></g><path fill="#f7ce08" d="M 70.722656 21.832031 L 63.828125 18.289062 L 57.003906 21.957031 L 58.242188 14.304688 L 52.644531 8.949219 L 60.300781 7.761719 L 63.667969 0.78125 L 67.160156 7.699219 L 74.839844 8.746094 L 69.339844 14.203125 Z M 70.722656 21.832031 " fill-opacity="1" fill-rule="nonzero"/><g clip-path="url(#42a2e1942b)"><path stroke-linecap="butt" transform="matrix(0.285368, 0, 0, 0.285368, 70.721018, 0.908897)" fill="none" stroke-linejoin="miter" d="M 0.00574071 73.319942 L -24.154437 60.904486 L -48.068221 73.757974 L -43.728971 46.94223 L -63.344571 28.175316 L -36.515139 24.014017 L -24.715665 -0.447308 L -12.478158 23.795001 L 14.433405 27.463515 L -4.839983 46.58633 Z M 0.00574071 73.319942 " stroke="#b28037" stroke-width="2.41" stroke-opacity="1" stroke-miterlimit="10"/></g><path fill="#f7ce08" d="M 96.148438 21.832031 L 89.253906 18.289062 L 82.429688 21.957031 L 83.667969 14.304688 L 78.070312 8.949219 L 85.726562 7.761719 L 89.09375 0.78125 L 92.585938 7.699219 L 100.265625 8.746094 L 94.765625 14.203125 Z M 96.148438 21.832031 " fill-opacity="1" fill-rule="nonzero"/><g clip-path="url(#f62883d984)"><path stroke-linecap="butt" transform="matrix(0.285368, 0, 0, 0.285368, 96.147268, 0.908897)" fill="none" stroke-linejoin="miter" d="M 0.00409878 73.319942 L -24.156079 60.904486 L -48.069863 73.757974 L -43.730613 46.94223 L -63.346213 28.175316 L -36.516781 24.014017 L -24.717307 -0.447308 L -12.4798 23.795001 L 14.431763 27.463515 L -4.841625 46.58633 Z M 0.00409878 73.319942 " stroke="#b28037" stroke-width="2.41" stroke-opacity="1" stroke-miterlimit="10"/></g><g clip-path="url(#1c6dd7325d)"><path stroke-linecap="butt" transform="matrix(0.285368, 0, 0, 0.285368, 19.9975, 26.502657)" fill="none" stroke-linejoin="miter" d="M -0.00492874 73.319908 L -24.151418 60.904452 L -48.078891 73.75794 L -43.725952 46.942196 L -63.355241 28.175282 L -36.51212 24.013982 L -24.712646 -0.447342 L -12.475139 23.794967 L 14.436424 27.463481 L -4.836964 46.586295 Z M -0.00492874 73.319908 " stroke="#b28037" stroke-width="2.41" stroke-opacity="1" stroke-miterlimit="10"/></g><g clip-path="url(#8d5df7e15e)"><path stroke-linecap="butt" transform="matrix(0.285368, 0, 0, 0.285368, 45.67659, 26.502657)" fill="none" stroke-linejoin="miter" d="M -0.00283516 73.319908 L -24.149324 60.904452 L -48.076797 73.75794 L -43.723859 46.942196 L -63.353147 28.175282 L -36.510027 24.013982 L -24.710552 -0.447342 L -12.473046 23.794967 L 14.438517 27.463481 L -4.834871 46.586295 Z M -0.00283516 73.319908 " stroke="#b28037" stroke-width="2.41" stroke-opacity="1" stroke-miterlimit="10"/></g><g clip-path="url(#50e161dd78)"><path stroke-linecap="butt" transform="matrix(0.285368, 0, 0, 0.285368, 70.721018, 26.502657)" fill="none" stroke-linejoin="miter" d="M 0.00574071 73.319908 L -24.154437 60.904452 L -48.068221 73.75794 L -43.728971 46.942196 L -63.344571 28.175282 L -36.515139 24.013982 L -24.715665 -0.447342 L -12.478158 23.794967 L 14.433405 27.463481 L -4.839983 46.586295 Z M 0.00574071 73.319908 " stroke="#b28037" stroke-width="2.41" stroke-opacity="1" stroke-miterlimit="10"/></g><g clip-path="url(#1887b4c74d)"><path stroke-linecap="butt" transform="matrix(0.285368, 0, 0, 0.285368, 121.293288, 26.502657)" fill="none" stroke-linejoin="miter" d="M -0.0011172 73.319908 L -24.147606 60.904452 L -48.075079 73.75794 L -43.735829 46.942196 L -63.351429 28.175282 L -36.508309 24.013982 L -24.722523 -0.447342 L -12.471328 23.794967 L 14.440235 27.463481 L -4.833153 46.586295 Z M -0.0011172 73.319908 " stroke="#b28037" stroke-width="2.41" stroke-opacity="1" stroke-miterlimit="10"/><path stroke-linecap="butt" transform="matrix(0.285368, 0, 0, 0.285368, 121.293288, 26.502657)" fill="none" stroke-linejoin="miter" d="M -0.0011172 73.319908 L -24.147606 60.904452 L -48.075079 73.75794 L -43.735829 46.942196 L -63.351429 28.175282 L -36.508309 24.013982 L -24.722523 -0.447342 L -12.471328 23.794967 L 14.440235 27.463481 L -4.833153 46.586295 Z M -0.0011172 73.319908 " stroke="#b28037" stroke-width="2.41" stroke-opacity="1" stroke-miterlimit="10"/></g><g clip-path="url(#67ab0a4cac)"><path stroke-linecap="butt" transform="matrix(0.285368, 0, 0, 0.285368, 96.180937, 26.502657)" fill="none" stroke-linejoin="miter" d="M -0.00437946 73.319908 L -24.150868 60.904452 L -48.078342 73.75794 L -43.725403 46.942196 L -63.354692 28.175282 L -36.511571 24.013982 L -24.712096 -0.447342 L -12.47459 23.794967 L 14.436973 27.463481 L -4.836415 46.586295 Z M -0.00437946 73.319908 " stroke="#b28037" stroke-width="2.41" stroke-opacity="1" stroke-miterlimit="10"/><path stroke-linecap="butt" transform="matrix(0.285368, 0, 0, 0.285368, 96.180937, 26.502657)" fill="none" stroke-linejoin="miter" d="M -0.00437946 73.319908 L -24.150868 60.904452 L -48.078342 73.75794 L -43.725403 46.942196 L -63.354692 28.175282 L -36.511571 24.013982 L -24.712096 -0.447342 L -12.47459 23.794967 L 14.436973 27.463481 L -4.836415 46.586295 Z M -0.00437946 73.319908 " stroke="#b28037" stroke-width="2.41" stroke-opacity="1" stroke-miterlimit="10"/></g><g clip-path="url(#15f7229a9e)"><path stroke-linecap="butt" transform="matrix(0.285368, 0, 0, 0.285368, 121.196255, 0.902618)" fill="none" stroke-linejoin="miter" d="M -0.00330264 73.314568 L -24.149792 60.899112 L -48.077265 73.7526 L -43.724326 46.950545 L -63.353615 28.169942 L -36.510494 24.022331 L -24.711019 -0.438993 L -12.473513 23.803315 L 14.43805 27.458141 L -4.835338 46.594644 Z M -0.00330264 73.314568 " stroke="#b28037" stroke-width="2.41" stroke-opacity="1" stroke-miterlimit="10"/></g><g clip-path="url(#0893163343)"><path fill="#f7ce08" d="M 120.953125 21.832031 L 114.0625 18.289062 L 107.234375 21.957031 L 108.472656 14.304688 L 102.875 8.949219 L 110.535156 7.761719 L 113.898438 0.78125 L 117.394531 7.699219 L 125.074219 8.746094 L 119.574219 14.203125 Z M 120.953125 21.832031 " fill-opacity="1" fill-rule="nonzero"/></g><g clip-path="url(#1f79d562cf)"><path stroke-linecap="butt" transform="matrix(0.285368, 0, 0, 0.285368, 120.95322, 0.908897)" fill="none" stroke-linejoin="miter" d="M -0.000334169 73.319942 L -24.146821 60.904486 L -48.074291 73.757974 L -43.735042 46.94223 L -63.35064 28.175316 L -36.507522 24.014017 L -24.721737 -0.447308 L -12.470543 23.795001 L 14.441017 27.463515 L -4.832369 46.58633 Z M -0.000334169 73.319942 " stroke="#b28037" stroke-width="2.41" stroke-opacity="1" stroke-miterlimit="10"/></g><g clip-path="url(#8b5d9cfb7f)"><path stroke-linecap="butt" transform="matrix(0.285368, 0, 0, 0.285368, 146.632309, 0.908897)" fill="none" stroke-linejoin="miter" d="M 0.00176601 73.319942 L -24.158409 60.904486 L -48.072191 73.757974 L -43.732942 46.94223 L -63.34854 28.175316 L -36.505422 24.014017 L -24.719637 -0.447308 L -12.468443 23.795001 L 14.429429 27.463515 L -4.830269 46.58633 Z M 0.00176601 73.319942 " stroke="#b28037" stroke-width="2.41" stroke-opacity="1" stroke-miterlimit="10"/></g><g clip-path="url(#7a2fd29009)"><path stroke-linecap="butt" transform="matrix(0.285368, 0, 0, 0.285368, 120.95322, 26.502657)" fill="none" stroke-linejoin="miter" d="M -0.000334169 73.319908 L -24.146821 60.904452 L -48.074291 73.75794 L -43.735042 46.942196 L -63.35064 28.175282 L -36.507522 24.013982 L -24.721737 -0.447342 L -12.470543 23.794967 L 14.441017 27.463481 L -4.832369 46.586295 Z M -0.000334169 73.319908 " stroke="#b28037" stroke-width="2.41" stroke-opacity="1" stroke-miterlimit="10"/></g><g clip-path="url(#ed5d5a882a)"><path stroke-linecap="butt" transform="matrix(0.285368, 0, 0, 0.285368, 146.632309, 26.502657)" fill="none" stroke-linejoin="miter" d="M 0.00176601 73.319908 L -24.158409 60.904452 L -48.072191 73.75794 L -43.732942 46.942196 L -63.34854 28.175282 L -36.505422 24.013982 L -24.719637 -0.447342 L -12.468443 23.794967 L 14.429429 27.463481 L -4.830269 46.586295 Z M 0.00176601 73.319908 " stroke="#b28037" stroke-width="2.41" stroke-opacity="1" stroke-miterlimit="10"/></g></svg>