<svg xmlns="http://www.w3.org/2000/svg" xmlns:xlink="http://www.w3.org/1999/xlink" width="171" zoomAndPan="magnify" viewBox="0 0 128.25 28.499999" height="38" preserveAspectRatio="xMidYMid meet" version="1.0"><defs><clipPath id="aa3827e53c"><path d="M 0.738281 1.246094 L 34 1.246094 L 34 26.308594 L 0.738281 26.308594 Z M 0.738281 1.246094 " clip-rule="nonzero"/></clipPath><clipPath id="26cf46461d"><path d="M 17 1.246094 L 60 1.246094 L 60 26.308594 L 17 26.308594 Z M 17 1.246094 " clip-rule="nonzero"/></clipPath><clipPath id="f4edd52ede"><path d="M 42 1.246094 L 85 1.246094 L 85 26.308594 L 42 26.308594 Z M 42 1.246094 " clip-rule="nonzero"/></clipPath><clipPath id="69019fa1fb"><path d="M 68 1.246094 L 101.714844 1.246094 L 101.714844 26.308594 L 68 26.308594 Z M 68 1.246094 " clip-rule="nonzero"/></clipPath><clipPath id="7b432f2e60"><path d="M 0.738281 17 L 34 17 L 34 26.308594 L 0.738281 26.308594 Z M 0.738281 17 " clip-rule="nonzero"/></clipPath><clipPath id="bb946229a8"><path d="M 17 17 L 60 17 L 60 26.308594 L 17 26.308594 Z M 17 17 " clip-rule="nonzero"/></clipPath><clipPath id="1216efadfd"><path d="M 42 17 L 85 17 L 85 26.308594 L 42 26.308594 Z M 42 17 " clip-rule="nonzero"/></clipPath><clipPath id="a07922c253"><path d="M 93 17 L 101.714844 17 L 101.714844 26.308594 L 93 26.308594 Z M 93 17 " clip-rule="nonzero"/></clipPath><clipPath id="53ebf6464d"><path d="M 68 17 L 101.714844 17 L 101.714844 26.308594 L 68 26.308594 Z M 68 17 " clip-rule="nonzero"/></clipPath><clipPath id="25165ae081"><path d="M 93 1.246094 L 101.714844 1.246094 L 101.714844 26.308594 L 93 26.308594 Z M 93 1.246094 " clip-rule="nonzero"/></clipPath><clipPath id="4237e7a8fb"><path d="M 101.597656 0 L 110 0 L 110 8 L 101.597656 8 Z M 101.597656 0 " clip-rule="nonzero"/></clipPath><clipPath id="b2c96b993d"><path d="M 101.597656 17 L 110 17 L 110 27.273438 L 101.597656 27.273438 Z M 101.597656 17 " clip-rule="nonzero"/></clipPath><clipPath id="2c91d4bbc3"><path d="M 101.597656 17 L 125.898438 17 L 125.898438 27.273438 L 101.597656 27.273438 Z M 101.597656 17 " clip-rule="nonzero"/></clipPath><clipPath id="9ce4db79a1"><path d="M 101.597656 0 L 125.898438 0 L 125.898438 27.273438 L 101.597656 27.273438 Z M 101.597656 0 " clip-rule="nonzero"/></clipPath><clipPath id="62ed7ca450"><path d="M 101.597656 0 L 110 0 L 110 27.273438 L 101.597656 27.273438 Z M 101.597656 0 " clip-rule="nonzero"/></clipPath><clipPath id="590a2333d9"><path d="M 101.597656 0 L 125.898438 0 L 125.898438 8 L 101.597656 8 Z M 101.597656 0 " clip-rule="nonzero"/></clipPath></defs><path fill="#f7ce08" d="M 19.648438 23.121094 L 12.742188 19.574219 L 5.902344 23.25 L 7.144531 15.582031 L 1.53125 10.214844 L 9.207031 9.027344 L 12.582031 2.03125 L 16.082031 8.964844 L 23.777344 10.011719 L 18.265625 15.480469 Z M 19.648438 23.121094 " fill-opacity="1" fill-rule="nonzero"/><g clip-path="url(#aa3827e53c)"><path stroke-linecap="butt" transform="matrix(0.285946, 0, 0, 0.285946, 19.647852, 2.158547)" fill="none" stroke-linejoin="miter" d="M 0.00204859 73.309356 L -24.150205 60.90537 L -48.070225 73.760161 L -43.726098 46.944057 L -63.356634 28.174149 L -36.513208 24.021273 L -24.710297 -0.445178 L -12.470241 23.802701 L 14.44149 27.463789 L -4.833866 46.588876 Z M 0.00204859 73.309356 " stroke="#b28037" stroke-width="2.41" stroke-opacity="1" stroke-miterlimit="10"/></g><path fill="#f7ce08" d="M 45.378906 23.121094 L 38.472656 19.574219 L 31.632812 23.25 L 32.875 15.582031 L 27.265625 10.214844 L 34.9375 9.027344 L 38.3125 2.03125 L 41.8125 8.964844 L 49.507812 10.011719 L 43.996094 15.480469 Z M 45.378906 23.121094 " fill-opacity="1" fill-rule="nonzero"/><g clip-path="url(#26cf46461d)"><path stroke-linecap="butt" transform="matrix(0.285946, 0, 0, 0.285946, 45.379028, 2.158547)" fill="none" stroke-linejoin="miter" d="M -0.000426736 73.309356 L -24.15268 60.90537 L -48.0727 73.760161 L -43.728573 46.944057 L -63.345449 28.174149 L -36.515683 24.021273 L -24.712772 -0.445178 L -12.472716 23.802701 L 14.439014 27.463789 L -4.836342 46.588876 Z M -0.000426736 73.309356 " stroke="#b28037" stroke-width="2.41" stroke-opacity="1" stroke-miterlimit="10"/></g><path fill="#f7ce08" d="M 70.472656 23.121094 L 63.566406 19.574219 L 56.726562 23.25 L 57.96875 15.582031 L 52.359375 10.214844 L 60.035156 9.027344 L 63.40625 2.03125 L 66.90625 8.964844 L 74.601562 10.011719 L 69.089844 15.480469 Z M 70.472656 23.121094 " fill-opacity="1" fill-rule="nonzero"/><g clip-path="url(#f4edd52ede)"><path stroke-linecap="butt" transform="matrix(0.285946, 0, 0, 0.285946, 70.474255, 2.158547)" fill="none" stroke-linejoin="miter" d="M -0.00559169 73.309356 L -24.157845 60.90537 L -48.077865 73.760161 L -43.733738 46.944057 L -63.350614 28.174149 L -36.507187 24.021273 L -24.717937 -0.445178 L -12.477881 23.802701 L 14.433849 27.463789 L -4.841507 46.588876 Z M -0.00559169 73.309356 " stroke="#b28037" stroke-width="2.41" stroke-opacity="1" stroke-miterlimit="10"/></g><path fill="#f7ce08" d="M 95.953125 23.121094 L 89.046875 19.574219 L 82.207031 23.25 L 83.449219 15.582031 L 77.835938 10.214844 L 85.511719 9.027344 L 88.882812 2.03125 L 92.386719 8.964844 L 100.078125 10.011719 L 94.570312 15.480469 Z M 95.953125 23.121094 " fill-opacity="1" fill-rule="nonzero"/><g clip-path="url(#69019fa1fb)"><path stroke-linecap="butt" transform="matrix(0.285946, 0, 0, 0.285946, 95.952079, 2.158547)" fill="none" stroke-linejoin="miter" d="M 0.00365934 73.309356 L -24.148594 60.90537 L -48.068614 73.760161 L -43.724487 46.944057 L -63.355023 28.174149 L -36.511597 24.021273 L -24.722347 -0.445178 L -12.46863 23.802701 L 14.42944 27.463789 L -4.832256 46.588876 Z M 0.00365934 73.309356 " stroke="#b28037" stroke-width="2.41" stroke-opacity="1" stroke-miterlimit="10"/></g><g clip-path="url(#7b432f2e60)"><path stroke-linecap="butt" transform="matrix(0.285946, 0, 0, 0.285946, 19.647852, 27.80422)" fill="none" stroke-linejoin="miter" d="M 0.00204859 73.319022 L -24.150205 60.901376 L -48.070225 73.756167 L -43.726098 46.953723 L -63.356634 28.170155 L -36.513208 24.017279 L -24.710297 -0.435512 L -12.470241 23.798706 L 14.44149 27.459795 L -4.833866 46.598543 Z M 0.00204859 73.319022 " stroke="#b28037" stroke-width="2.41" stroke-opacity="1" stroke-miterlimit="10"/></g><g clip-path="url(#bb946229a8)"><path stroke-linecap="butt" transform="matrix(0.285946, 0, 0, 0.285946, 45.379028, 27.80422)" fill="none" stroke-linejoin="miter" d="M -0.000426736 73.319022 L -24.15268 60.901376 L -48.0727 73.756167 L -43.728573 46.953723 L -63.345449 28.170155 L -36.515683 24.017279 L -24.712772 -0.435512 L -12.472716 23.798706 L 14.439014 27.459795 L -4.836342 46.598543 Z M -0.000426736 73.319022 " stroke="#b28037" stroke-width="2.41" stroke-opacity="1" stroke-miterlimit="10"/></g><g clip-path="url(#1216efadfd)"><path stroke-linecap="butt" transform="matrix(0.285946, 0, 0, 0.285946, 70.474255, 27.80422)" fill="none" stroke-linejoin="miter" d="M -0.00559169 73.319022 L -24.157845 60.901376 L -48.077865 73.756167 L -43.733738 46.953723 L -63.350614 28.170155 L -36.507187 24.017279 L -24.717937 -0.435512 L -12.477881 23.798706 L 14.433849 27.459795 L -4.841507 46.598543 Z M -0.00559169 73.319022 " stroke="#b28037" stroke-width="2.41" stroke-opacity="1" stroke-miterlimit="10"/></g><g clip-path="url(#a07922c253)"><path stroke-linecap="butt" transform="matrix(0.285946, 0, 0, 0.285946, 121.149104, 27.80422)" fill="none" stroke-linejoin="miter" d="M -0.00232942 73.319022 L -24.154583 60.901376 L -48.074603 73.756167 L -43.730476 46.953723 L -63.347351 28.170155 L -36.517586 24.017279 L -24.714675 -0.435512 L -12.474619 23.798706 L 14.437112 27.459795 L -4.838244 46.598543 Z M -0.00232942 73.319022 " stroke="#b28037" stroke-width="2.41" stroke-opacity="1" stroke-miterlimit="10"/><path stroke-linecap="butt" transform="matrix(0.285946, 0, 0, 0.285946, 121.149104, 27.80422)" fill="none" stroke-linejoin="miter" d="M -0.00232942 73.319022 L -24.154583 60.901376 L -48.074603 73.756167 L -43.730476 46.953723 L -63.347351 28.170155 L -36.517586 24.017279 L -24.714675 -0.435512 L -12.474619 23.798706 L 14.437112 27.459795 L -4.838244 46.598543 Z M -0.00232942 73.319022 " stroke="#b28037" stroke-width="2.41" stroke-opacity="1" stroke-miterlimit="10"/></g><g clip-path="url(#53ebf6464d)"><path stroke-linecap="butt" transform="matrix(0.285946, 0, 0, 0.285946, 95.985816, 27.80422)" fill="none" stroke-linejoin="miter" d="M -0.00504057 73.319022 L -24.157294 60.901376 L -48.077314 73.756167 L -43.733187 46.953723 L -63.350062 28.170155 L -36.506636 24.017279 L -24.717386 -0.435512 L -12.47733 23.798706 L 14.4344 27.459795 L -4.840956 46.598543 Z M -0.00504057 73.319022 " stroke="#b28037" stroke-width="2.41" stroke-opacity="1" stroke-miterlimit="10"/><path stroke-linecap="butt" transform="matrix(0.285946, 0, 0, 0.285946, 95.985816, 27.80422)" fill="none" stroke-linejoin="miter" d="M -0.00504057 73.319022 L -24.157294 60.901376 L -48.077314 73.756167 L -43.733187 46.953723 L -63.350062 28.170155 L -36.506636 24.017279 L -24.717386 -0.435512 L -12.47733 23.798706 L 14.4344 27.459795 L -4.840956 46.598543 Z M -0.00504057 73.319022 " stroke="#b28037" stroke-width="2.41" stroke-opacity="1" stroke-miterlimit="10"/></g><g clip-path="url(#25165ae081)"><path stroke-linecap="butt" transform="matrix(0.285946, 0, 0, 0.285946, 121.051874, 2.152256)" fill="none" stroke-linejoin="miter" d="M -0.00382213 73.317697 L -24.156075 60.900051 L -48.076096 73.754842 L -43.731969 46.952398 L -63.348844 28.16883 L -36.505418 24.015954 L -24.716167 -0.436837 L -12.476111 23.797381 L 14.435619 27.45847 L -4.839737 46.597218 Z M -0.00382213 73.317697 " stroke="#b28037" stroke-width="2.41" stroke-opacity="1" stroke-miterlimit="10"/></g><g clip-path="url(#4237e7a8fb)"><path stroke-linecap="butt" transform="matrix(0.285946, 0, 0, 0.285946, 95.810682, -23.474837)" fill="none" stroke-linejoin="miter" d="M 0.00635893 73.311353 L -24.159555 60.893707 L -48.079575 73.762159 L -43.735448 46.946054 L -63.352324 28.176147 L -36.508897 24.023271 L -24.719647 -0.44318 L -12.479591 23.804698 L 14.432139 27.452126 L -4.843217 46.590874 Z M 0.00635893 73.311353 " stroke="#b28037" stroke-width="2.41" stroke-opacity="1" stroke-miterlimit="10"/></g><g clip-path="url(#b2c96b993d)"><path stroke-linecap="butt" transform="matrix(0.285946, 0, 0, 0.285946, 95.810682, 27.816797)" fill="none" stroke-linejoin="miter" d="M 0.00635893 73.316022 L -24.159555 60.898376 L -48.079575 73.753167 L -43.735448 46.950723 L -63.352324 28.167155 L -36.508897 24.014279 L -24.719647 -0.438512 L -12.479591 23.795706 L 14.432139 27.456794 L -4.843217 46.595543 Z M 0.00635893 73.316022 " stroke="#b28037" stroke-width="2.41" stroke-opacity="1" stroke-miterlimit="10"/></g><g clip-path="url(#2c91d4bbc3)"><path stroke-linecap="butt" transform="matrix(0.285946, 0, 0, 0.285946, 121.007707, 27.816797)" fill="none" stroke-linejoin="miter" d="M 0.000370181 73.316022 L -24.151883 60.898376 L -48.071903 73.753167 L -43.727776 46.950723 L -63.344652 28.167155 L -36.514886 24.014279 L -24.711975 -0.438512 L -12.471919 23.795706 L 14.439811 27.456794 L -4.835545 46.595543 Z M 0.000370181 73.316022 " stroke="#b28037" stroke-width="2.41" stroke-opacity="1" stroke-miterlimit="10"/></g><g clip-path="url(#9ce4db79a1)"><path stroke-linecap="butt" transform="matrix(0.285946, 0, 0, 0.285946, 121.007707, 2.170837)" fill="none" stroke-linejoin="miter" d="M 0.000370181 73.321019 L -24.151883 60.903373 L -48.071903 73.758163 L -43.727776 46.955719 L -63.344652 28.172151 L -36.514886 24.019275 L -24.711975 -0.447176 L -12.471919 23.800703 L 14.439811 27.461791 L -4.835545 46.586878 Z M 0.000370181 73.321019 " stroke="#b28037" stroke-width="2.41" stroke-opacity="1" stroke-miterlimit="10"/><path stroke-linecap="butt" transform="matrix(0.285946, 0, 0, 0.285946, 121.007707, 2.170837)" fill="none" stroke-linejoin="miter" d="M 0.000370181 73.321019 L -24.151883 60.903373 L -48.071903 73.758163 L -43.727776 46.955719 L -63.344652 28.172151 L -36.514886 24.019275 L -24.711975 -0.447176 L -12.471919 23.800703 L 14.439811 27.461791 L -4.835545 46.586878 Z M 0.000370181 73.321019 " stroke="#b28037" stroke-width="2.41" stroke-opacity="1" stroke-miterlimit="10"/></g><g clip-path="url(#62ed7ca450)"><path stroke-linecap="butt" transform="matrix(0.285946, 0, 0, 0.285946, 95.844419, 2.170837)" fill="none" stroke-linejoin="miter" d="M -0.00234097 73.321019 L -24.154594 60.903373 L -48.074614 73.758163 L -43.730487 46.955719 L -63.347363 28.172151 L -36.517597 24.019275 L -24.714686 -0.447176 L -12.47463 23.800703 L 14.4371 27.461791 L -4.838256 46.586878 Z M -0.00234097 73.321019 " stroke="#b28037" stroke-width="2.41" stroke-opacity="1" stroke-miterlimit="10"/><path stroke-linecap="butt" transform="matrix(0.285946, 0, 0, 0.285946, 95.844419, 2.170837)" fill="none" stroke-linejoin="miter" d="M -0.00234097 73.321019 L -24.154594 60.903373 L -48.074614 73.758163 L -43.730487 46.955719 L -63.347363 28.172151 L -36.517597 24.019275 L -24.714686 -0.447176 L -12.47463 23.800703 L 14.4371 27.461791 L -4.838256 46.586878 Z M -0.00234097 73.321019 " stroke="#b28037" stroke-width="2.41" stroke-opacity="1" stroke-miterlimit="10"/></g><g clip-path="url(#590a2333d9)"><path stroke-linecap="butt" transform="matrix(0.285946, 0, 0, 0.285946, 120.910477, -23.481128)" fill="none" stroke-linejoin="miter" d="M -0.00112253 73.319694 L -24.153376 60.902048 L -48.073396 73.756839 L -43.729269 46.954395 L -63.346144 28.170827 L -36.516379 24.01795 L -24.713468 -0.448501 L -12.473412 23.799378 L 14.438319 27.460466 L -4.837038 46.585554 Z M -0.00112253 73.319694 " stroke="#b28037" stroke-width="2.41" stroke-opacity="1" stroke-miterlimit="10"/></g></svg>