<svg xmlns="http://www.w3.org/2000/svg" xmlns:xlink="http://www.w3.org/1999/xlink" width="171" zoomAndPan="magnify" viewBox="0 0 128.25 24.749999" height="33" preserveAspectRatio="xMidYMid meet" version="1.0"><defs><clipPath id="01728e910e"><path d="M 0.269531 0 L 34 0 L 34 23.761719 L 0.269531 23.761719 Z M 0.269531 0 " clip-rule="nonzero"/></clipPath><clipPath id="50e4de4e1e"><path d="M 17 0 L 60 0 L 60 23.761719 L 17 23.761719 Z M 17 0 " clip-rule="nonzero"/></clipPath><clipPath id="1c5f02439a"><path d="M 42 0 L 85 0 L 85 23.761719 L 42 23.761719 Z M 42 0 " clip-rule="nonzero"/></clipPath><clipPath id="e6efbf12ad"><path d="M 68 0 L 111 0 L 111 23.761719 L 68 23.761719 Z M 68 0 " clip-rule="nonzero"/></clipPath><clipPath id="b863e27a01"><path d="M 0.269531 16 L 34 16 L 34 23.761719 L 0.269531 23.761719 Z M 0.269531 16 " clip-rule="nonzero"/></clipPath><clipPath id="548be3d2fb"><path d="M 17 16 L 60 16 L 60 23.761719 L 17 23.761719 Z M 17 16 " clip-rule="nonzero"/></clipPath><clipPath id="8da74c41db"><path d="M 42 16 L 85 16 L 85 23.761719 L 42 23.761719 Z M 42 16 " clip-rule="nonzero"/></clipPath><clipPath id="7a76787230"><path d="M 93 16 L 126.496094 16 L 126.496094 23.761719 L 93 23.761719 Z M 93 16 " clip-rule="nonzero"/></clipPath><clipPath id="437e85da5f"><path d="M 68 16 L 111 16 L 111 23.761719 L 68 23.761719 Z M 68 16 " clip-rule="nonzero"/></clipPath><clipPath id="fee2d2cc8b"><path d="M 93 0 L 126.496094 0 L 126.496094 23.761719 L 93 23.761719 Z M 93 0 " clip-rule="nonzero"/></clipPath><clipPath id="ca26900d99"><path d="M 0.269531 0 L 34 0 L 34 23.761719 L 0.269531 23.761719 Z M 0.269531 0 " clip-rule="nonzero"/></clipPath><clipPath id="147e27ab33"><path d="M 17 0 L 60 0 L 60 23.761719 L 17 23.761719 Z M 17 0 " clip-rule="nonzero"/></clipPath><clipPath id="4fcf624d04"><path d="M 42 0 L 85 0 L 85 23.761719 L 42 23.761719 Z M 42 0 " clip-rule="nonzero"/></clipPath><clipPath id="a578baef55"><path d="M 68 0 L 111 0 L 111 23.761719 L 68 23.761719 Z M 68 0 " clip-rule="nonzero"/></clipPath><clipPath id="9faf7c72e5"><path d="M 0.269531 16 L 34 16 L 34 23.761719 L 0.269531 23.761719 Z M 0.269531 16 " clip-rule="nonzero"/></clipPath><clipPath id="a2b8c5fd6f"><path d="M 17 16 L 60 16 L 60 23.761719 L 17 23.761719 Z M 17 16 " clip-rule="nonzero"/></clipPath><clipPath id="0b0b1d0081"><path d="M 42 16 L 85 16 L 85 23.761719 L 42 23.761719 Z M 42 16 " clip-rule="nonzero"/></clipPath><clipPath id="dd66a96477"><path d="M 93 16 L 126.496094 16 L 126.496094 23.761719 L 93 23.761719 Z M 93 16 " clip-rule="nonzero"/></clipPath><clipPath id="c9f781ba7c"><path d="M 68 16 L 111 16 L 111 23.761719 L 68 23.761719 Z M 68 16 " clip-rule="nonzero"/></clipPath><clipPath id="c0e5da7a57"><path d="M 93 0 L 126.496094 0 L 126.496094 23.761719 L 93 23.761719 Z M 93 0 " clip-rule="nonzero"/></clipPath></defs><path fill="#f7ce08" d="M 19.320312 22.035156 L 12.363281 18.460938 L 5.472656 22.164062 L 6.722656 14.441406 L 1.070312 9.03125 L 8.800781 7.835938 L 12.199219 0.789062 L 15.726562 7.773438 L 23.476562 8.828125 L 17.925781 14.339844 Z M 19.320312 22.035156 " fill-opacity="1" fill-rule="nonzero"/><g clip-path="url(#01728e910e)"><path stroke-linecap="butt" transform="matrix(0.288053, 0, 0, 0.288053, 19.320126, 0.91745)" fill="none" stroke-linejoin="miter" d="M 0.000648853 73.31178 L -24.151233 60.903598 L -48.072581 73.759289 L -43.733108 46.949479 L -63.355665 28.167695 L -36.518733 24.018073 L -24.720789 -0.445709 L -12.475338 23.8011 L 14.429398 27.46253 L -4.840576 46.596897 Z M 0.000648853 73.31178 " stroke="#b28037" stroke-width="2.41" stroke-opacity="1" stroke-miterlimit="10"/></g><path fill="#f7ce08" d="M 45.242188 22.035156 L 38.285156 18.460938 L 31.394531 22.164062 L 32.644531 14.441406 L 26.992188 9.03125 L 34.722656 7.835938 L 38.121094 0.789062 L 41.648438 7.773438 L 49.398438 8.828125 L 43.847656 14.339844 Z M 45.242188 22.035156 " fill-opacity="1" fill-rule="nonzero"/><g clip-path="url(#50e4de4e1e)"><path stroke-linecap="butt" transform="matrix(0.288053, 0, 0, 0.288053, 45.2409, 0.91745)" fill="none" stroke-linejoin="miter" d="M 0.0044691 73.31178 L -24.147413 60.903598 L -48.068761 73.759289 L -43.729287 46.949479 L -63.351844 28.167695 L -36.514913 24.018073 L -24.716969 -0.445709 L -12.471517 23.8011 L 14.433219 27.46253 L -4.836756 46.596897 Z M 0.0044691 73.31178 " stroke="#b28037" stroke-width="2.41" stroke-opacity="1" stroke-miterlimit="10"/></g><path fill="#f7ce08" d="M 70.519531 22.035156 L 63.5625 18.460938 L 56.671875 22.164062 L 57.925781 14.441406 L 52.273438 9.03125 L 60.003906 7.835938 L 63.402344 0.789062 L 66.925781 7.773438 L 74.679688 8.828125 L 69.128906 14.339844 Z M 70.519531 22.035156 " fill-opacity="1" fill-rule="nonzero"/><g clip-path="url(#1c5f02439a)"><path stroke-linecap="butt" transform="matrix(0.288053, 0, 0, 0.288053, 70.521039, 0.91745)" fill="none" stroke-linejoin="miter" d="M -0.00523471 73.31178 L -24.157117 60.903598 L -48.078465 73.759289 L -43.72543 46.949479 L -63.347987 28.167695 L -36.511056 24.018073 L -24.713112 -0.445709 L -12.481221 23.8011 L 14.437076 27.46253 L -4.832899 46.596897 Z M -0.00523471 73.31178 " stroke="#b28037" stroke-width="2.41" stroke-opacity="1" stroke-miterlimit="10"/></g><path fill="#f7ce08" d="M 96.1875 22.035156 L 89.230469 18.460938 L 82.339844 22.164062 L 83.589844 14.441406 L 77.9375 9.03125 L 85.667969 7.835938 L 89.066406 0.789062 L 92.59375 7.773438 L 100.34375 8.828125 L 94.792969 14.339844 Z M 96.1875 22.035156 " fill-opacity="1" fill-rule="nonzero"/><g clip-path="url(#e6efbf12ad)"><path stroke-linecap="butt" transform="matrix(0.288053, 0, 0, 0.288053, 96.186594, 0.91745)" fill="none" stroke-linejoin="miter" d="M 0.00314604 73.31178 L -24.148736 60.903598 L -48.070084 73.759289 L -43.730611 46.949479 L -63.353167 28.167695 L -36.516236 24.018073 L -24.718292 -0.445709 L -12.47284 23.8011 L 14.431896 27.46253 L -4.838079 46.596897 Z M 0.00314604 73.31178 " stroke="#b28037" stroke-width="2.41" stroke-opacity="1" stroke-miterlimit="10"/></g><g clip-path="url(#b863e27a01)"><path stroke-linecap="butt" transform="matrix(0.288053, 0, 0, 0.288053, 19.320126, 26.752092)" fill="none" stroke-linejoin="miter" d="M 0.000648853 73.316281 L -24.151233 60.894538 L -48.072581 73.750228 L -43.733108 46.953979 L -63.355665 28.172195 L -36.518733 24.022574 L -24.720789 -0.441208 L -12.475338 23.8056 L 14.429398 27.45347 L -4.840576 46.587836 Z M 0.000648853 73.316281 " stroke="#b28037" stroke-width="2.41" stroke-opacity="1" stroke-miterlimit="10"/></g><g clip-path="url(#548be3d2fb)"><path stroke-linecap="butt" transform="matrix(0.288053, 0, 0, 0.288053, 45.2409, 26.752092)" fill="none" stroke-linejoin="miter" d="M 0.0044691 73.316281 L -24.147413 60.894538 L -48.068761 73.750228 L -43.729287 46.953979 L -63.351844 28.172195 L -36.514913 24.022574 L -24.716969 -0.441208 L -12.471517 23.8056 L 14.433219 27.45347 L -4.836756 46.587836 Z M 0.0044691 73.316281 " stroke="#b28037" stroke-width="2.41" stroke-opacity="1" stroke-miterlimit="10"/></g><g clip-path="url(#8da74c41db)"><path stroke-linecap="butt" transform="matrix(0.288053, 0, 0, 0.288053, 70.521039, 26.752092)" fill="none" stroke-linejoin="miter" d="M -0.00523471 73.316281 L -24.157117 60.894538 L -48.078465 73.750228 L -43.72543 46.953979 L -63.347987 28.172195 L -36.511056 24.022574 L -24.713112 -0.441208 L -12.481221 23.8056 L 14.437076 27.45347 L -4.832899 46.587836 Z M -0.00523471 73.316281 " stroke="#b28037" stroke-width="2.41" stroke-opacity="1" stroke-miterlimit="10"/></g><g clip-path="url(#7a76787230)"><path stroke-linecap="butt" transform="matrix(0.288053, 0, 0, 0.288053, 121.569281, 26.752092)" fill="none" stroke-linejoin="miter" d="M 0.00358132 73.316281 L -24.148301 60.894538 L -48.069649 73.750228 L -43.730175 46.953979 L -63.352732 28.172195 L -36.515801 24.022574 L -24.717857 -0.441208 L -12.472405 23.8056 L 14.432331 27.45347 L -4.837644 46.587836 Z M 0.00358132 73.316281 " stroke="#b28037" stroke-width="2.41" stroke-opacity="1" stroke-miterlimit="10"/><path stroke-linecap="butt" transform="matrix(0.288053, 0, 0, 0.288053, 121.569281, 26.752092)" fill="none" stroke-linejoin="miter" d="M 0.00358132 73.316281 L -24.148301 60.894538 L -48.069649 73.750228 L -43.730175 46.953979 L -63.352732 28.172195 L -36.515801 24.022574 L -24.717857 -0.441208 L -12.472405 23.8056 L 14.432331 27.45347 L -4.837644 46.587836 Z M 0.00358132 73.316281 " stroke="#b28037" stroke-width="2.41" stroke-opacity="1" stroke-miterlimit="10"/></g><g clip-path="url(#437e85da5f)"><path stroke-linecap="butt" transform="matrix(0.288053, 0, 0, 0.288053, 96.22058, 26.752092)" fill="none" stroke-linejoin="miter" d="M -0.00635324 73.316281 L -24.158236 60.894538 L -48.079583 73.750228 L -43.726549 46.953979 L -63.349106 28.172195 L -36.512174 24.022574 L -24.714231 -0.441208 L -12.468779 23.8056 L 14.435957 27.45347 L -4.834018 46.587836 Z M -0.00635324 73.316281 " stroke="#b28037" stroke-width="2.41" stroke-opacity="1" stroke-miterlimit="10"/><path stroke-linecap="butt" transform="matrix(0.288053, 0, 0, 0.288053, 96.22058, 26.752092)" fill="none" stroke-linejoin="miter" d="M -0.00635324 73.316281 L -24.158236 60.894538 L -48.079583 73.750228 L -43.726549 46.953979 L -63.349106 28.172195 L -36.512174 24.022574 L -24.714231 -0.441208 L -12.468779 23.8056 L 14.435957 27.45347 L -4.834018 46.587836 Z M -0.00635324 73.316281 " stroke="#b28037" stroke-width="2.41" stroke-opacity="1" stroke-miterlimit="10"/></g><path fill="#f7ce08" d="M 114.21875 0.785156 L 114.515625 0.785156 L 114.515625 18.453125 L 114.21875 18.453125 Z M 114.21875 0.785156 " fill-opacity="1" fill-rule="evenodd"/><g clip-path="url(#fee2d2cc8b)"><path stroke-linecap="butt" transform="matrix(0.288053, 0, 0, 0.288053, 121.471335, 0.911112)" fill="none" stroke-linejoin="miter" d="M 0.00458665 73.320223 L -24.147296 60.89848 L -48.068643 73.75417 L -43.72917 46.94436 L -63.351727 28.176137 L -36.514795 24.026516 L -24.716852 -0.437266 L -12.4714 23.795981 L 14.433336 27.457412 L -4.836638 46.591778 Z M 0.00458665 73.320223 " stroke="#b28037" stroke-width="2.41" stroke-opacity="1" stroke-miterlimit="10"/></g><path fill="#f7ce08" d="M 108.140625 21.382812 C 108.140625 21.335938 108.394531 19.71875 108.707031 17.792969 L 109.277344 14.289062 L 108.65625 13.703125 C 108.316406 13.378906 107.140625 12.257812 106.042969 11.207031 C 104.203125 9.445312 104.058594 9.296875 104.175781 9.265625 C 104.242188 9.246094 105.839844 8.996094 107.722656 8.707031 C 109.609375 8.417969 111.175781 8.160156 111.203125 8.128906 C 111.234375 8.097656 111.9375 6.660156 112.769531 4.929688 L 114.28125 1.789062 L 114.292969 9.945312 C 114.304688 16.433594 114.292969 18.113281 114.246094 18.160156 C 114.210938 18.1875 112.894531 18.902344 111.320312 19.746094 C 109.746094 20.589844 108.386719 21.320312 108.300781 21.371094 C 108.152344 21.460938 108.140625 21.460938 108.140625 21.382812 Z M 108.140625 21.382812 " fill-opacity="1" fill-rule="evenodd"/><path fill="#f7ce08" d="M 19.320312 22.035156 L 12.363281 18.460938 L 5.472656 22.164062 L 6.722656 14.441406 L 1.070312 9.03125 L 8.800781 7.835938 L 12.199219 0.789062 L 15.726562 7.773438 L 23.476562 8.828125 L 17.925781 14.339844 Z M 19.320312 22.035156 " fill-opacity="1" fill-rule="nonzero"/><g clip-path="url(#ca26900d99)"><path stroke-linecap="butt" transform="matrix(0.288053, 0, 0, 0.288053, 19.320126, 0.91745)" fill="none" stroke-linejoin="miter" d="M 0.000648853 73.31178 L -24.151233 60.903598 L -48.072581 73.759289 L -43.733108 46.949479 L -63.355665 28.167695 L -36.518733 24.018073 L -24.720789 -0.445709 L -12.475338 23.8011 L 14.429398 27.46253 L -4.840576 46.596897 Z M 0.000648853 73.31178 " stroke="#b28037" stroke-width="2.41" stroke-opacity="1" stroke-miterlimit="10"/></g><path fill="#f7ce08" d="M 45.242188 22.035156 L 38.285156 18.460938 L 31.394531 22.164062 L 32.644531 14.441406 L 26.992188 9.03125 L 34.722656 7.835938 L 38.121094 0.789062 L 41.648438 7.773438 L 49.398438 8.828125 L 43.847656 14.339844 Z M 45.242188 22.035156 " fill-opacity="1" fill-rule="nonzero"/><g clip-path="url(#147e27ab33)"><path stroke-linecap="butt" transform="matrix(0.288053, 0, 0, 0.288053, 45.2409, 0.91745)" fill="none" stroke-linejoin="miter" d="M 0.0044691 73.31178 L -24.147413 60.903598 L -48.068761 73.759289 L -43.729287 46.949479 L -63.351844 28.167695 L -36.514913 24.018073 L -24.716969 -0.445709 L -12.471517 23.8011 L 14.433219 27.46253 L -4.836756 46.596897 Z M 0.0044691 73.31178 " stroke="#b28037" stroke-width="2.41" stroke-opacity="1" stroke-miterlimit="10"/></g><path fill="#f7ce08" d="M 70.519531 22.035156 L 63.5625 18.460938 L 56.671875 22.164062 L 57.925781 14.441406 L 52.273438 9.03125 L 60.003906 7.835938 L 63.402344 0.789062 L 66.925781 7.773438 L 74.679688 8.828125 L 69.128906 14.339844 Z M 70.519531 22.035156 " fill-opacity="1" fill-rule="nonzero"/><g clip-path="url(#4fcf624d04)"><path stroke-linecap="butt" transform="matrix(0.288053, 0, 0, 0.288053, 70.521039, 0.91745)" fill="none" stroke-linejoin="miter" d="M -0.00523471 73.31178 L -24.157117 60.903598 L -48.078465 73.759289 L -43.72543 46.949479 L -63.347987 28.167695 L -36.511056 24.018073 L -24.713112 -0.445709 L -12.481221 23.8011 L 14.437076 27.46253 L -4.832899 46.596897 Z M -0.00523471 73.31178 " stroke="#b28037" stroke-width="2.41" stroke-opacity="1" stroke-miterlimit="10"/></g><path fill="#f7ce08" d="M 96.1875 22.035156 L 89.230469 18.460938 L 82.339844 22.164062 L 83.589844 14.441406 L 77.9375 9.03125 L 85.667969 7.835938 L 89.066406 0.789062 L 92.59375 7.773438 L 100.34375 8.828125 L 94.792969 14.339844 Z M 96.1875 22.035156 " fill-opacity="1" fill-rule="nonzero"/><g clip-path="url(#a578baef55)"><path stroke-linecap="butt" transform="matrix(0.288053, 0, 0, 0.288053, 96.186594, 0.91745)" fill="none" stroke-linejoin="miter" d="M 0.00314604 73.31178 L -24.148736 60.903598 L -48.070084 73.759289 L -43.730611 46.949479 L -63.353167 28.167695 L -36.516236 24.018073 L -24.718292 -0.445709 L -12.47284 23.8011 L 14.431896 27.46253 L -4.838079 46.596897 Z M 0.00314604 73.31178 " stroke="#b28037" stroke-width="2.41" stroke-opacity="1" stroke-miterlimit="10"/></g><g clip-path="url(#9faf7c72e5)"><path stroke-linecap="butt" transform="matrix(0.288053, 0, 0, 0.288053, 19.320126, 26.752092)" fill="none" stroke-linejoin="miter" d="M 0.000648853 73.316281 L -24.151233 60.894538 L -48.072581 73.750228 L -43.733108 46.953979 L -63.355665 28.172195 L -36.518733 24.022574 L -24.720789 -0.441208 L -12.475338 23.8056 L 14.429398 27.45347 L -4.840576 46.587836 Z M 0.000648853 73.316281 " stroke="#b28037" stroke-width="2.41" stroke-opacity="1" stroke-miterlimit="10"/></g><g clip-path="url(#a2b8c5fd6f)"><path stroke-linecap="butt" transform="matrix(0.288053, 0, 0, 0.288053, 45.2409, 26.752092)" fill="none" stroke-linejoin="miter" d="M 0.0044691 73.316281 L -24.147413 60.894538 L -48.068761 73.750228 L -43.729287 46.953979 L -63.351844 28.172195 L -36.514913 24.022574 L -24.716969 -0.441208 L -12.471517 23.8056 L 14.433219 27.45347 L -4.836756 46.587836 Z M 0.0044691 73.316281 " stroke="#b28037" stroke-width="2.41" stroke-opacity="1" stroke-miterlimit="10"/></g><g clip-path="url(#0b0b1d0081)"><path stroke-linecap="butt" transform="matrix(0.288053, 0, 0, 0.288053, 70.521039, 26.752092)" fill="none" stroke-linejoin="miter" d="M -0.00523471 73.316281 L -24.157117 60.894538 L -48.078465 73.750228 L -43.72543 46.953979 L -63.347987 28.172195 L -36.511056 24.022574 L -24.713112 -0.441208 L -12.481221 23.8056 L 14.437076 27.45347 L -4.832899 46.587836 Z M -0.00523471 73.316281 " stroke="#b28037" stroke-width="2.41" stroke-opacity="1" stroke-miterlimit="10"/></g><g clip-path="url(#dd66a96477)"><path stroke-linecap="butt" transform="matrix(0.288053, 0, 0, 0.288053, 121.569281, 26.752092)" fill="none" stroke-linejoin="miter" d="M 0.00358132 73.316281 L -24.148301 60.894538 L -48.069649 73.750228 L -43.730175 46.953979 L -63.352732 28.172195 L -36.515801 24.022574 L -24.717857 -0.441208 L -12.472405 23.8056 L 14.432331 27.45347 L -4.837644 46.587836 Z M 0.00358132 73.316281 " stroke="#b28037" stroke-width="2.41" stroke-opacity="1" stroke-miterlimit="10"/><path stroke-linecap="butt" transform="matrix(0.288053, 0, 0, 0.288053, 121.569281, 26.752092)" fill="none" stroke-linejoin="miter" d="M 0.00358132 73.316281 L -24.148301 60.894538 L -48.069649 73.750228 L -43.730175 46.953979 L -63.352732 28.172195 L -36.515801 24.022574 L -24.717857 -0.441208 L -12.472405 23.8056 L 14.432331 27.45347 L -4.837644 46.587836 Z M 0.00358132 73.316281 " stroke="#b28037" stroke-width="2.41" stroke-opacity="1" stroke-miterlimit="10"/></g><g clip-path="url(#c9f781ba7c)"><path stroke-linecap="butt" transform="matrix(0.288053, 0, 0, 0.288053, 96.22058, 26.752092)" fill="none" stroke-linejoin="miter" d="M -0.00635324 73.316281 L -24.158236 60.894538 L -48.079583 73.750228 L -43.726549 46.953979 L -63.349106 28.172195 L -36.512174 24.022574 L -24.714231 -0.441208 L -12.468779 23.8056 L 14.435957 27.45347 L -4.834018 46.587836 Z M -0.00635324 73.316281 " stroke="#b28037" stroke-width="2.41" stroke-opacity="1" stroke-miterlimit="10"/><path stroke-linecap="butt" transform="matrix(0.288053, 0, 0, 0.288053, 96.22058, 26.752092)" fill="none" stroke-linejoin="miter" d="M -0.00635324 73.316281 L -24.158236 60.894538 L -48.079583 73.750228 L -43.726549 46.953979 L -63.349106 28.172195 L -36.512174 24.022574 L -24.714231 -0.441208 L -12.468779 23.8056 L 14.435957 27.45347 L -4.834018 46.587836 Z M -0.00635324 73.316281 " stroke="#b28037" stroke-width="2.41" stroke-opacity="1" stroke-miterlimit="10"/></g><path fill="#f7ce08" d="M 114.21875 0.785156 L 114.515625 0.785156 L 114.515625 18.453125 L 114.21875 18.453125 Z M 114.21875 0.785156 " fill-opacity="1" fill-rule="evenodd"/><g clip-path="url(#c0e5da7a57)"><path stroke-linecap="butt" transform="matrix(0.288053, 0, 0, 0.288053, 121.471335, 0.911112)" fill="none" stroke-linejoin="miter" d="M 0.00458665 73.320223 L -24.147296 60.89848 L -48.068643 73.75417 L -43.72917 46.94436 L -63.351727 28.176137 L -36.514795 24.026516 L -24.716852 -0.437266 L -12.4714 23.795981 L 14.433336 27.457412 L -4.836638 46.591778 Z M 0.00458665 73.320223 " stroke="#b28037" stroke-width="2.41" stroke-opacity="1" stroke-miterlimit="10"/></g><path fill="#f7ce08" d="M 108.140625 21.382812 C 108.140625 21.335938 108.394531 19.71875 108.707031 17.792969 L 109.277344 14.289062 L 108.65625 13.703125 C 108.316406 13.378906 107.140625 12.257812 106.042969 11.207031 C 104.203125 9.445312 104.058594 9.296875 104.175781 9.265625 C 104.242188 9.246094 105.839844 8.996094 107.722656 8.707031 C 109.609375 8.417969 111.175781 8.160156 111.203125 8.128906 C 111.234375 8.097656 111.9375 6.660156 112.769531 4.929688 L 114.28125 1.789062 L 114.292969 9.945312 C 114.304688 16.433594 114.292969 18.113281 114.246094 18.160156 C 114.210938 18.1875 112.894531 18.902344 111.320312 19.746094 C 109.746094 20.589844 108.386719 21.320312 108.300781 21.371094 C 108.152344 21.460938 108.140625 21.460938 108.140625 21.382812 Z M 108.140625 21.382812 " fill-opacity="1" fill-rule="evenodd"/></svg>